<?xml version="1.0" encoding="utf-8"?>
<!-- Generator: Adobe Illustrator 19.1.0, SVG Export Plug-In . SVG Version: 6.00 Build 0)  -->
<svg version="1.1" id="Livello_1" xmlns="http://www.w3.org/2000/svg" xmlns:xlink="http://www.w3.org/1999/xlink" x="0px" y="0px"
	 width="96px" height="96px" viewBox="0 0 96 96" enable-background="new 0 0 96 96" xml:space="preserve">
<g>
	<rect fill="#F1C40F" width="96" height="96"/>
</g>
<rect x="18" y="29" fill="#FFFFFF" width="63" height="51"/>
<rect x="25" y="64" fill="#F1C40F" width="49" height="9"/>
<rect x="25" y="54" fill="#F1C40F" width="49" height="5"/>
<path fill="#FFFFFF" d="M38.014,17H37.7h-5.986H31.4c-3.464,0-5.986,2.516-6.3,5.986V23.3V29h6v-6h7v6H44v-5.7v-0.314
	C43.686,19.516,41.164,17,38.014,17z"/>
<path fill="#FFFFFF" d="M67.914,17H67.6h-5.986H61.3c-3.464,0-5.986,2.516-6.3,5.986V23.3V29h6v-6h7v6h5.9v-5.7v-0.314
	C73.586,19.516,71.064,17,67.914,17z"/>
</svg>
