<?xml version="1.0" encoding="utf-8"?>
<!-- Generator: Adobe Illustrator 19.1.0, SVG Export Plug-In . SVG Version: 6.00 Build 0)  -->
<svg version="1.1" id="Livello_1" xmlns="http://www.w3.org/2000/svg" xmlns:xlink="http://www.w3.org/1999/xlink" x="0px" y="0px"
	 width="96px" height="96px" viewBox="0 0 96 96" enable-background="new 0 0 96 96" xml:space="preserve">
<rect fill="#FFFFFF" width="96" height="96"/>
<path fill="#00979D" d="M73.9,29v-5.7v-0.314C73.586,19.516,71.064,17,67.914,17H67.6h-5.986H61.3c-3.464,0-5.986,2.516-6.3,5.986
	V23.3V29H44v-5.7v-0.314C43.685,19.516,41.149,17,37.982,17h-0.315h-6.018h-0.316c-3.482,0-6.018,2.516-6.333,5.986V23.3V29h-7v51
	h63V29H73.9z M61,23h7v6h-7V23z M31,23h7.069v6H31V23z M74,73H25v-9h49V73z M74,59H25v-5h49V59z"/>
</svg>
